<svg xmlns="http://www.w3.org/2000/svg" viewBox="934 607 1830 1032.5"><defs><style>.a{fill:#dadada;}.b{fill:none;stroke:#dadada;}</style></defs><g transform="translate(888 559)"><rect class="a" width="30" height="30.136" transform="translate(46 984)"/><line class="b" y2="66" transform="translate(61.5 1014.5)"/><rect class="a" width="30" height="30.136" transform="translate(106 954)"/><line class="b" y2="121" transform="translate(121.5 959.5)"/><rect class="a" width="30" height="20.136" transform="translate(166 984)"/><line class="b" y2="76" transform="translate(181.5 1004.5)"/><rect class="a" width="30" height="38.136" transform="translate(226 946)"/><line class="b" y2="96" transform="translate(241.5 984.5)"/><rect class="a" width="30" height="15.136" transform="translate(286 931)"/><line class="b" y2="134" transform="translate(301.5 946.5)"/><rect class="a" width="30" height="19.136" transform="translate(346 946)"/><line class="b" y2="121" transform="translate(361.5 959.5)"/><rect class="a" width="30" height="62.136" transform="translate(406 884)"/><line class="b" y2="134" transform="translate(421.5 946.5)"/><rect class="a" width="30" height="24.136" transform="translate(466 860)"/><line class="b" y2="196" transform="translate(481.5 884.5)"/><rect class="a" width="30" height="29.136" transform="translate(526 884)"/><line class="b" y2="167" transform="translate(541.5 913.5)"/><rect class="a" width="30" height="18.136" transform="translate(586 913)"/><line class="b" y2="149" transform="translate(601.5 931.5)"/><rect class="a" width="30" height="53.629" transform="translate(646 860)"/><line class="b" y2="167" transform="translate(661.5 913.5)"/><rect class="a" width="30" height="23.629" transform="translate(706 836)"/><line class="b" y2="225" transform="translate(721.5 855.5)"/><rect class="a" width="30" height="30.629" transform="translate(766 805)"/><line class="b" y2="245" transform="translate(781.5 835.5)"/><rect class="a" width="30" height="72.629" transform="translate(826 732)"/><line class="b" y2="276" transform="translate(841.5 804.5)"/><rect class="a" width="30" height="19.629" transform="translate(886 805)"/><line class="b" y2="255" transform="translate(901.5 825.5)"/><rect class="a" width="30" height="46.629" transform="translate(946 825)"/><line class="b" y2="209" transform="translate(961.5 871.5)"/><rect class="a" width="30" height="33.629" transform="translate(1006 872)"/><line class="b" y2="175" transform="translate(1021.5 905.5)"/><rect class="a" width="30" height="25.629" transform="translate(1066 906)"/><line class="b" y2="149" transform="translate(1081.5 931.5)"/><rect class="a" width="30" height="100.523" transform="translate(1126 805)"/><line class="b" y2="175" transform="translate(1141.5 905.5)"/><rect class="a" width="30" height="28.462" transform="translate(1186 776.269)"/><line class="b" y2="276" transform="translate(1201.5 804.5)"/><rect class="a" width="30" height="16.462" transform="translate(1246 804.269)"/><line class="b" y2="260" transform="translate(1261.5 820.5)"/><rect class="a" width="30" height="114.462" transform="translate(1306 690.269)"/><line class="b" y2="276" transform="translate(1321.5 804.5)"/><rect class="a" width="30" height="19.462" transform="translate(1366 671.269)"/><line class="b" y2="393" transform="translate(1381.5 687.5)"/><rect class="a" width="30" height="70.462" transform="translate(1426 601.269)"/><line class="b" y2="409" transform="translate(1441.5 671.5)"/><rect class="a" width="30" height="168.462" transform="translate(1486 433.269)"/><line class="b" y2="480" transform="translate(1501.5 600.5)"/><rect class="a" width="30" height="138.462" transform="translate(1546 295.269)"/><line class="b" y2="647" transform="translate(1561.5 433.5)"/><rect class="a" width="30" height="21.799" transform="translate(1606 273)"/><line class="b" y2="786" transform="translate(1621.5 294.5)"/><rect class="a" width="30" height="44.799" transform="translate(1666 228)"/><line class="b" y2="808" transform="translate(1681.5 272.5)"/><rect class="a" width="30" height="77.799" transform="translate(1726 150)"/><line class="b" y2="853" transform="translate(1741.5 227.5)"/><rect class="a" width="30" height="29.799" transform="translate(1786 120)"/><line class="b" y2="931" transform="translate(1801.5 149.5)"/><rect class="a" width="30" height="71.799" transform="translate(1846 48)"/><line class="b" y2="961" transform="translate(1861.5 119.5)"/></g></svg>