<svg xmlns="http://www.w3.org/2000/svg" viewBox="2346.596 1133.306 194.405 110.498"><defs><style>.a,.d{fill:#fff;}.a,.c{stroke:#404040;stroke-width:3px;}.b{fill:#858585;font-size:16px;font-family:Montserrat-SemiBold, Montserrat;font-weight:600;}.c{fill:#1c75bc;}.d{fill-rule:evenodd;}</style></defs><g transform="translate(888 559)"><path class="a" d="M14.486,51.46A13.694,13.694,0,0,0,16.8,38.905H8.5a8.5,8.5,0,0,1-8.5-8.5V8.5A8.5,8.5,0,0,1,8.5,0h132A8.5,8.5,0,0,1,149,8.5V30.406a8.5,8.5,0,0,1-8.5,8.5H28.644c-3.164,7.886-12.73,15.436-14.956,15.435C12.934,54.34,13.022,53.474,14.486,51.46Z" transform="translate(1502.5 575.806)"/><text class="b" transform="translate(1525.608 601.497)"><tspan x="0" y="0">It&apos;s mooning!</tspan></text><g transform="translate(1460.096 630.096)"><circle class="c" cx="26.604" cy="26.604" r="26.604"/><path class="d" d="M40.622,15.08,37.233,25.69s-2.09,5.289-7.063,5.289H6.195l1.71-5.289H29.632l3.42-10.61h-21.7L13.036,9.79H36.885C42.111,9.79,40.622,15.08,40.622,15.08ZM7.05,17.93H19.909l-1.647,4.909H5.371Z" transform="translate(3.56 6.489)"/></g></g></svg>