<svg xmlns="http://www.w3.org/2000/svg" viewBox="2156.1 874.306 199.9 100.498"><defs><style>.a{fill:#627eea;}.a,.f{stroke:#404040;stroke-width:3px;}.b{fill:#c5c6dd;}.c,.f{fill:#fff;}.d{fill:#939dc3;}.e{fill:#ccd1d9;}.g{fill:#858585;font-size:16px;font-family:Montserrat-SemiBold, Montserrat;font-weight:600;}</style></defs><g transform="translate(888 559)"><g transform="translate(1269.6 361.55)"><ellipse class="a" cx="26.377" cy="26.377" rx="26.377" ry="26.377"/><g transform="translate(14.837 6.594)"><path class="b" d="M7.5,0V14.623l12.359,5.523Z" transform="translate(4.863)"/><path class="c" d="M12.361,0,0,20.145l12.361-5.523Z"/><path class="b" d="M7.5,20.791v9.936l12.368-17.11Z" transform="translate(4.863 8.831)"/><path class="c" d="M12.361,30.726V20.789L0,13.616Z" transform="translate(0 8.831)"/><path class="d" d="M7.5,21.568l12.359-7.176L7.5,8.872Z" transform="translate(4.863 5.754)"/><path class="e" d="M0,14.391l12.361,7.176V8.872Z" transform="translate(0 5.754)"/></g></g><path class="f" d="M14.486,51.46A13.694,13.694,0,0,0,16.8,38.905H8.5a8.5,8.5,0,0,1-8.5-8.5V8.5A8.5,8.5,0,0,1,8.5,0h132A8.5,8.5,0,0,1,149,8.5V30.406a8.5,8.5,0,0,1-8.5,8.5H28.644c-3.164,7.886-12.73,15.436-14.956,15.435C12.934,54.34,13.022,53.474,14.486,51.46Z" transform="translate(1317.5 316.806)"/><text class="g" transform="translate(1340.608 342.497)"><tspan x="0" y="0">Should I sell?</tspan></text></g></svg>