<svg xmlns="http://www.w3.org/2000/svg" viewBox="1912 954 523 305"><defs><style>.a{fill:#fff;stroke:#404040;stroke-width:3px;}.b{fill:#404040;}.c{fill:#dadada;}.d{fill:#68caad;}.e{fill:#e18888;}.f{stroke:none;}.g{fill:none;}</style></defs><g transform="translate(888 559)"><g transform="translate(-2)"><g class="a" transform="translate(1026 395)"><rect class="f" width="523" height="267" rx="8"/><rect class="g" x="1.5" y="1.5" width="520" height="264" rx="6.5"/></g><rect class="b" width="139" height="34" transform="translate(1218 661)"/><rect class="b" width="265" height="6" transform="translate(1155 694)"/><rect class="b" width="33" height="235" transform="translate(1042 411)"/><rect class="c" width="225" height="233" transform="translate(1307 412)"/><rect class="c" width="179" height="24" rx="12" transform="translate(1083 614)"/><rect class="c" width="119" height="7" rx="3.5" transform="translate(1083 422)"/><rect class="c" width="168" height="7" rx="3.5" transform="translate(1083 449)"/><rect class="c" width="31" height="7" rx="3.5" transform="translate(1083 476)"/><rect class="c" width="98" height="7" rx="3.5" transform="translate(1083 503)"/><rect class="c" width="60" height="7" rx="3.5" transform="translate(1083 530)"/><rect class="c" width="129" height="7" rx="3.5" transform="translate(1083 557)"/><rect class="c" width="19" height="7" rx="3.5" transform="translate(1083 584)"/><rect class="c" width="30" height="24" rx="12" transform="translate(1269 614)"/></g><rect class="d" width="29" height="9" transform="translate(1326.5 499.5) rotate(90)"/><rect class="d" width="18" height="9" transform="translate(1342.5 481.5) rotate(90)"/><rect class="d" width="13" height="9" transform="translate(1358.5 468.5) rotate(90)"/><rect class="e" width="16" height="9" transform="translate(1374.5 481.5) rotate(90)"/><rect class="e" width="11" height="9" transform="translate(1390.5 497.5) rotate(90)"/><rect class="d" width="15" height="9" transform="translate(1406.5 484.5) rotate(90)"/><rect class="d" width="16" height="9" transform="translate(1422.5 468.5) rotate(90)"/><rect class="d" width="28" height="9" transform="translate(1438.5 440.5) rotate(90)"/><rect class="e" width="11" height="9" transform="translate(1454.5 468.5) rotate(90)"/><rect class="d" width="22" height="9" transform="translate(1470.5 446.5) rotate(90)"/><rect class="d" width="25" height="9" transform="translate(1486.5 421.5) rotate(90)"/><rect class="e" width="14" height="9" transform="translate(1502.5 446.5) rotate(90)"/><rect class="e" width="24" height="9" transform="translate(1518.5 460.5) rotate(90)"/></g></svg>